<?xml version="1.0" encoding="utf-8"?>
<!-- Generator: Adobe Illustrator 23.0.6, SVG Export Plug-In . SVG Version: 6.00 Build 0)  -->
<svg version="1.1" id="Layer_1" xmlns="http://www.w3.org/2000/svg" xmlns:xlink="http://www.w3.org/1999/xlink" x="0px" y="0px"
	 viewBox="0 0 761.6 190.4" style="enable-background:new 0 0 761.6 190.4;" xml:space="preserve">
<style type="text/css">
	.st0{fill:none;stroke:#CC2029;stroke-width:2;stroke-linecap:round;stroke-linejoin:round;stroke-miterlimit:10;}
	.st1{fill:none;stroke:#6C6C6C;stroke-width:2;stroke-linecap:round;stroke-linejoin:round;stroke-miterlimit:10;}
	.st2{fill:#FFFFFF;stroke:#6C6C6C;stroke-miterlimit:10;}
	.st3{fill:none;stroke:#6C6C6C;stroke-width:2;stroke-miterlimit:10;}
	.st4{fill:#6C6C6C;}
	.st5{font-family:'RedHatText-Regular';}
	.st6{font-size:16px;}
	.st7{fill:none;}
	.st8{font-size:14px;}
	.st9{fill:none;stroke:#6C6C6C;stroke-miterlimit:10;}
	.st10{fill:#CC2029;}
	.st11{fill:#FFFFFF;}
</style>
<line class="st0" x1="327" y1="138.7" x2="622" y2="138.7"/>
<polyline class="st1" points="165.3,121.6 165.3,138.7 239.4,138.7 "/>
<polyline class="st1" points="236.6,49.7 165.2,49.7 165.2,64.9 "/>
<line class="st0" x1="622" y1="49.7" x2="325.9" y2="49.7"/>
<rect x="245.3" y="14.2" class="st2" width="80.5" height="72"/>
<rect x="245.3" y="103.2" class="st2" width="80.5" height="72"/>
<polyline class="st3" points="115.1,65.1 196.9,65 196.9,121 115.1,121.1 "/>
<text transform="matrix(1 -3.200000e-04 3.200000e-04 1 135.6001 97.8103)" class="st4 st5 st6">Broker</text>
<g>
	<text transform="matrix(1 -3.200000e-04 3.200000e-04 1 259.9673 43.7808)" class="st4 st5 st6">Trigger</text>
	<rect x="253.5" y="51.4" class="st7" width="64.2" height="18.8"/>
	<text transform="matrix(1 -3.200000e-04 3.200000e-04 1 263.6173 63.3426)" class="st4 st5 st8">(Filter)</text>
</g>
<text transform="matrix(1 -3.200000e-04 3.200000e-04 1 661.3329 43.7808)" class="st4 st5 st6">Service</text>
<rect x="630" y="51.4" class="st7" width="116" height="18.1"/>
<text transform="matrix(1 -3.200000e-04 3.200000e-04 1 632.1331 63.3442)" class="st4 st5 st8">(User application)</text>
<rect x="623.1" y="14.2" class="st9" width="129.6" height="72"/>
<text transform="matrix(1 -3.200000e-04 3.200000e-04 1 661.3329 133.7808)" class="st4 st5 st6">Service</text>
<rect x="630" y="141.4" class="st7" width="116" height="18.1"/>
<text transform="matrix(1 -3.200000e-04 3.200000e-04 1 632.1331 153.3442)" class="st4 st5 st8">(User application)</text>
<rect x="623.1" y="104.2" class="st9" width="129.6" height="72"/>
<g>
	<text transform="matrix(1 -3.200000e-04 3.200000e-04 1 259.9673 132.7808)" class="st4 st5 st6">Trigger</text>
	<rect x="253.5" y="140.4" class="st7" width="64.2" height="18.8"/>
	<text transform="matrix(1 -3.200000e-04 3.200000e-04 1 263.6173 152.3426)" class="st4 st5 st8">(Filter)</text>
</g>
<text transform="matrix(1 -3.200000e-04 3.200000e-04 1 7.2605 37.1293)" class="st4 st5 st6">Event producer</text>
<text transform="matrix(1 -3.200000e-04 3.200000e-04 1 7.2605 159.5478)" class="st4 st5 st6">Event producer</text>
<g>
	<line class="st0" x1="91.2" y1="93.7" x2="60.5" y2="93.7"/>
	<line class="st0" x1="60.5" y1="138.7" x2="60.4" y2="49.7"/>
</g>
<g>
	<circle class="st10" cx="100" cy="93.4" r="8"/>
	<circle class="st10" cx="120" cy="93.4" r="8"/>
	<circle class="st11" cx="120" cy="93.4" r="4"/>
</g>
<text transform="matrix(1 -3.200000e-04 3.200000e-04 1 441.2924 35.9842)" class="st4 st5 st8">Subscriber</text>
<g>
	<circle class="st10" cx="474.6" cy="49.6" r="8"/>
	<circle class="st11" cx="474.6" cy="49.6" r="4"/>
</g>
<text transform="matrix(1 -3.200000e-04 3.200000e-04 1 441.2924 160.7051)" class="st4 st5 st8">Subscriber</text>
<circle class="st10" cx="474.6" cy="138.6" r="8"/>
<path class="st4" d="M230.6,44.2l0.1,10.6c0,1.1,1.2,1.7,2.1,1.2l9.1-5.4c0.9-0.5,0.9-1.9,0-2.4l-9.3-5.2
	C231.7,42.5,230.6,43.2,230.6,44.2z"/>
<path class="st4" d="M230.6,133.5l0.1,10.6c0,1.1,1.2,1.7,2.1,1.2l9.1-5.4c0.9-0.5,0.9-1.9,0-2.4l-9.3-5.2
	C231.7,131.8,230.6,132.5,230.6,133.5z"/>
</svg>
